<svg id="Layer_1" xmlns="http://www.w3.org/2000/svg" viewBox="-973 1952 615 560"><style>.st0{fill:#00AA86;} .st1{fill:none;stroke:#00AA86;stroke-width:6;stroke-linejoin:round;stroke-miterlimit:10;}</style><path class="st0" d="M-646.9 2332.9c-50.2 0-90.9-40.7-90.9-90.9s40.7-90.9 90.9-90.9 90.9 40.7 90.9 90.9-40.7 90.9-90.9 90.9zm0-172.8c-45.1 0-81.8 36.7-81.8 81.8s36.7 81.8 81.8 81.8 81.8-36.7 81.8-81.8-36.7-81.8-81.8-81.8zm143.3 242.2l103.6-157.8c1.1-1.5 1.1-3.6 0-5.1l-103.6-157.8c-1.5-2.2-4.4-2.5-6.2-1.5-2.2 1.5-2.5 4.4-1.5 6.2l101.8 155.7-101.8 155.7c-1.5 2.2-.7 5.1 1.5 6.2.7.4 1.5.7 2.5.7 1.2-.1 2.6-.8 3.7-2.3zm-280.4 1.5c2.2-1.5 2.5-4.4 1.5-6.2L-884.7 2242l101.8-155.7c1.5-2.2.7-5.1-1.5-6.2-2.2-1.5-5.1-.7-6.2 1.5l-103.3 157.8c-1.1 1.5-1.1 3.6 0 5.1l103.6 157.8c.7 1.5 2.2 2.2 3.6 2.2 1.3 0 2-.3 2.7-.7z"/><path class="st1" d="M-915 1986h536.3v512H-915z"/></svg>