<?xml version="1.0" encoding="utf-8"?>
<svg version="1.1" xmlns="http://www.w3.org/2000/svg" xmlns:xlink="http://www.w3.org/1999/xlink" x="0px" y="0px"
	 viewBox="0 0 543.9 92" style="background:0 0 543.9 92;" xml:space="preserve">

<g>
	<path class="st0" d="M67.9,71c-13.8,0-25-11.2-25-25s11.2-25,25-25s25,11.2,25,25S81.7,71,67.9,71z M67.9,23.5
		c-12.4,0-22.5,10.1-22.5,22.5s10.1,22.5,22.5,22.5S90.4,58.4,90.4,46S80.3,23.5,67.9,23.5z M107.3,90.1l28.5-43.4
		c0.3-0.4,0.3-1,0-1.4L107.3,1.9c-0.4-0.6-1.2-0.7-1.7-0.4c-0.6,0.4-0.7,1.2-0.4,1.7l28,42.8l-28,42.8c-0.4,0.6-0.2,1.4,0.4,1.7
		c0.2,0.1,0.4,0.2,0.7,0.2C106.6,90.7,107,90.5,107.3,90.1z M30.2,90.5c0.6-0.4,0.7-1.2,0.4-1.7L2.5,46l28-42.8
		c0.4-0.6,0.2-1.4-0.4-1.7c-0.6-0.4-1.4-0.2-1.7,0.4L0,45.3c-0.3,0.4-0.3,1,0,1.4l28.5,43.4c0.2,0.4,0.6,0.6,1,0.6
		C29.8,90.7,30,90.6,30.2,90.5z"/>
	<path class="st0" d="M186.3,9.5c0.4,0.1,0.7,0.4,0.9,0.8c0.2,0.4,0.2,0.8,0.1,1.2l-12,34.1c0,0,0,0-0.1,0.1c0,0,0,0.1,0,0.1
		c0,0.1-0.1,0.1-0.1,0.2c0,0.1,0,0.1,0,0.1c-0.1,0.1-0.1,0.1-0.2,0.2c0,0,0,0-0.1,0.1c-0.1,0-0.1,0.1-0.2,0.1c0,0-0.1,0-0.1,0.1
		c-0.1,0-0.1,0.1-0.2,0.1h0l0,0c0,0,0,0,0,0c0,0-0.1,0-0.2,0.1c-0.1,0-0.1,0-0.1,0c-0.1,0-0.2,0-0.3,0c-0.1,0-0.1,0-0.2,0
		c0,0,0,0-0.1,0c-0.1,0-0.1,0-0.2-0.1c0,0,0,0,0,0l0,0h0c-0.1,0-0.1-0.1-0.2-0.1c0,0-0.1,0-0.1-0.1c-0.1,0-0.1-0.1-0.2-0.1
		c-0.1-0.1-0.1-0.1-0.1-0.1c-0.1-0.1-0.1-0.1-0.2-0.2l0,0v0c-0.1-0.1-0.1-0.1-0.1-0.2c0,0,0,0,0-0.1c0-0.1-0.1-0.1-0.1-0.1l-12-34.1
		c-0.2-0.4-0.1-0.8,0.1-1.2c0.2-0.4,0.5-0.7,0.9-0.8c0.4-0.1,0.8-0.1,1.2,0.1c0.4,0.2,0.6,0.5,0.8,0.9l10.5,30l10.5-30
		c0.1-0.4,0.4-0.7,0.8-0.9c0.4-0.2,0.6-0.3,0.6-0.3S185.9,9.4,186.3,9.5z M200.3,45.1c0,0.4-0.2,0.8-0.5,1.1
		c-0.3,0.3-0.7,0.5-1.1,0.5c-0.4,0-0.8-0.2-1.1-0.5c-0.3-0.3-0.5-0.7-0.5-1.1v-34c0-0.4,0.2-0.8,0.5-1.1c0.3-0.3,0.7-0.5,1.1-0.5
		c0.4,0,0.8,0.2,1.1,0.5c0.3,0.3,0.5,0.7,0.5,1.1V45.1z M215.5,46.7c-0.4,0-0.8-0.2-1.1-0.5c-0.3-0.3-0.5-0.7-0.5-1.1V10.9
		c0-0.4,0.2-0.8,0.5-1.1c0.3-0.3,0.7-0.5,1.1-0.5l20.6,0.1c0.4,0,0.8,0.2,1.1,0.5c0.3,0.3,0.5,0.7,0.5,1.1c0,0.4-0.2,0.8-0.5,1.1
		c-0.3,0.3-0.7,0.4-1.1,0.4L217,12.5v14h14.3c0.4,0,0.8,0.2,1.1,0.5c0.3,0.3,0.5,0.7,0.5,1.1c0,0.4-0.2,0.8-0.5,1.1
		c-0.3,0.3-0.7,0.5-1.1,0.5H217v14h19.1c0.4,0,0.8,0.2,1.1,0.5c0.3,0.3,0.5,0.7,0.5,1.1c0,0.4-0.2,0.8-0.5,1.1
		c-0.3,0.3-0.7,0.5-1.1,0.5H215.5z M296.6,9.4c0.4,0.1,0.7,0.4,0.9,0.8c0.2,0.4,0.2,0.8,0.1,1.2l-12,34.2c0,0,0,0-0.1,0.1
		c0,0,0,0.1,0,0.1c0,0.1-0.1,0.1-0.1,0.2v0l0,0c-0.1,0.1-0.1,0.1-0.2,0.2c0,0,0,0-0.1,0.1c-0.1,0-0.1,0.1-0.2,0.1c0,0,0,0-0.1,0.1
		c-0.1,0-0.1,0.1-0.2,0.1h0c0,0,0,0,0,0c0,0,0,0,0,0c0,0-0.1,0-0.2,0.1c-0.1,0-0.1,0-0.1,0c-0.1,0-0.2,0-0.3,0c-0.1,0-0.1,0-0.2,0
		c0,0,0,0-0.1,0c-0.1,0-0.1,0-0.2-0.1c0,0,0,0,0,0c0,0,0,0,0,0c-0.1,0-0.2-0.1-0.2-0.1c0,0-0.1,0-0.1-0.1c-0.1,0-0.1-0.1-0.2-0.1
		c-0.1-0.1-0.1-0.1-0.1-0.1c-0.1-0.1-0.1-0.1-0.2-0.2v0c0,0,0,0,0,0c0-0.1-0.1-0.1-0.1-0.2c0,0,0,0-0.1-0.1c0-0.1,0-0.1,0-0.1
		l-10.5-30l-10.5,30c0,0,0,0-0.1,0.1c0,0,0,0.1,0,0.1c0,0.1-0.1,0.1-0.1,0.2v0l0,0c-0.1,0.1-0.1,0.1-0.2,0.2c0,0,0,0-0.1,0.1
		c-0.1,0-0.1,0.1-0.2,0.1c0,0-0.1,0-0.1,0.1c-0.1,0-0.1,0.1-0.2,0.1h0l0,0c0,0,0,0,0,0c0,0-0.1,0-0.2,0.1c-0.1,0-0.1,0-0.1,0
		c-0.1,0-0.2,0-0.3,0c-0.1,0-0.1,0-0.2,0c0,0,0,0-0.1,0c-0.1,0-0.1,0-0.2-0.1c0,0,0,0,0,0l0,0h0c-0.1,0-0.1-0.1-0.2-0.1
		c0,0-0.1,0-0.1-0.1c-0.1,0-0.1-0.1-0.2-0.1c-0.1-0.1-0.1-0.1-0.1-0.1c-0.1-0.1-0.1-0.1-0.2-0.2c0,0,0,0,0,0l0,0
		c0-0.1-0.1-0.1-0.1-0.2c0,0,0,0,0-0.1c0-0.1-0.1-0.1-0.1-0.1l-12-34.2c-0.2-0.4-0.1-0.8,0.1-1.2c0.2-0.4,0.5-0.7,0.9-0.8
		c0.4-0.1,0.8-0.1,1.2,0.1c0.4,0.2,0.6,0.5,0.8,0.9l10.5,30l10.5-30c0,0.1,0,0,0.1-0.1c0-0.1,0-0.1,0.1-0.2c0,0,0.1-0.1,0.1-0.1
		c0-0.1,0.1-0.1,0.1-0.1c0-0.1,0.1-0.1,0.1-0.1c0,0,0.1-0.1,0.1-0.1c0,0,0.1-0.1,0.1-0.1c0.1,0,0.1-0.1,0.2-0.1c0,0,0.1,0,0.1-0.1
		c0.1-0.1,0.1-0.1,0.1-0.1c0,0,0,0,0.1,0c0.1,0,0.1,0,0.2-0.1c0.1,0,0.1,0,0.2,0c0,0,0.1,0,0.2,0s0.1,0,0.2,0c0,0,0.1,0,0.1,0
		c0.1,0,0.1,0,0.2,0.1c0.1,0,0.1,0,0.1,0l0,0c0,0,0,0,0.1,0c0.1,0,0.1,0,0.1,0.1c0.1,0,0.1,0.1,0.1,0.1c0,0,0.1,0.1,0.1,0.1
		c0,0,0.1,0.1,0.1,0.1c0,0,0.1,0.1,0.1,0.1c0,0,0.1,0.1,0.1,0.1c0,0,0.1,0.1,0.1,0.1c0,0.1,0.1,0.1,0.1,0.2c0.1,0.1,0.1,0.1,0,0.1
		l10.5,30l10.5-30c0.1-0.4,0.4-0.7,0.8-0.9c0.4-0.2,0.6-0.3,0.6-0.3S296.2,9.3,296.6,9.4z M337,29.6c-4.2-0.1-7.3-1.2-9.4-3.5
		c-1.7-1.8-2.5-3.9-2.4-6.3c0.1-2.9,1.3-5.4,3.6-7.4c2.2-2,4.9-3,8-3c2.7,0,5.2,0.6,7.3,1.7c2.6,1.4,4.2,3.3,4.9,5.9
		c0.1,0.4,0.1,0.8-0.2,1.2c-0.2,0.4-0.5,0.6-1,0.7c-0.4,0.1-0.8,0.1-1.2-0.2c-0.4-0.2-0.6-0.5-0.7-0.9c-0.5-1.8-1.7-3.2-3.6-4.1
		c-1.6-0.8-3.5-1.2-5.6-1.2c-2.3,0-4.2,0.7-5.8,2.2s-2.5,3.2-2.6,5.3c-0.1,1.5,0.4,2.8,1.6,4c1.5,1.6,3.9,2.4,7.2,2.5
		c0.4,0,0.8,0.2,1.1,0.5c0.3,0.3,0.4,0.7,0.4,1.1c0,0.4-0.2,0.8-0.5,1.1C337.8,29.4,337.4,29.6,337,29.6L337,29.6z M330.1,45
		c-2.6-1.4-4.2-3.3-4.9-5.9c-0.1-0.4-0.1-0.8,0.2-1.2c0.2-0.4,0.5-0.6,1-0.7c0.4-0.1,0.8-0.1,1.2,0.2c0.4,0.2,0.6,0.5,0.7,0.9
		c0.5,1.8,1.7,3.2,3.6,4.1c1.6,0.8,3.5,1.2,5.6,1.2c2.3,0,4.2-0.7,5.8-2.2s2.5-3.2,2.6-5.3c0.1-1.5-0.4-2.8-1.6-4
		c-1.5-1.6-3.9-2.4-7.2-2.5c-0.4,0-0.8-0.2-1.1-0.5c-0.3-0.3-0.4-0.7-0.4-1.1c0-0.4,0.2-0.8,0.5-1.1c0.3-0.3,0.7-0.4,1.1-0.4
		c4.2,0.1,7.3,1.2,9.4,3.5c1.7,1.8,2.5,3.9,2.4,6.2c-0.1,2.9-1.3,5.4-3.5,7.4c-2.2,2-4.9,3-8,3C334.7,46.7,332.3,46.1,330.1,45z
		 M376.6,46.7c-5.1,0-9.5-1.8-13.2-5.5s-5.5-8-5.5-13.2s1.8-9.5,5.5-13.2s8-5.5,13.2-5.5c5.1,0,9.5,1.8,13.2,5.5s5.5,8,5.5,13.2
		s-1.8,9.5-5.5,13.2S381.7,46.7,376.6,46.7z M376.6,12.5c-4.3,0-7.9,1.5-11,4.6c-3,3-4.5,6.7-4.5,11c0,4.3,1.5,7.9,4.5,11
		c3,3,6.7,4.5,11,4.5c4.3,0,7.9-1.5,11-4.5c3-3,4.6-6.7,4.6-11c0-4.3-1.5-7.9-4.6-11C384.5,14.1,380.8,12.5,376.6,12.5z M430.6,9.5
		c0.4,0,0.8,0.1,1.1,0.4c0.3,0.3,0.4,0.7,0.4,1.1v22.9c0,3.5-1.2,6.5-3.7,9s-5.5,3.7-9,3.7c-3.5,0-6.5-1.2-9-3.7s-3.7-5.5-3.7-9V11
		c0-0.4,0.1-0.8,0.4-1.1c0.3-0.3,0.7-0.4,1.1-0.4c0.4,0,0.8,0.1,1.1,0.4c0.3,0.3,0.4,0.7,0.4,1.1v22.9c0,2.7,1,5,2.9,6.9
		c1.9,1.9,4.2,2.9,6.9,2.9c2.7,0,5-1,6.9-2.9c1.9-1.9,2.9-4.2,2.9-6.9V11c0-0.4,0.1-0.8,0.4-1.1C429.9,9.7,430.2,9.5,430.6,9.5z
		 M458.8,9.5c3,0,5.6,1,7.7,2.9c2.1,2,3.2,4.3,3.2,7.1c0,2.5-0.9,4.6-2.6,6.5c-1.7,1.9-3.8,3-6.4,3.4l7.4,15.1
		c0.2,0.4,0.2,0.8,0.1,1.2c-0.1,0.4-0.4,0.7-0.8,0.9c-0.2,0.1-0.4,0.2-0.7,0.2c-0.6,0-1.1-0.3-1.4-0.9l-8-16.3h-8.7v15.3
		c0,0.4-0.2,0.8-0.5,1.1c-0.3,0.3-0.7,0.4-1.1,0.4c-0.4,0-0.8-0.1-1.1-0.4c-0.3-0.3-0.4-0.7-0.4-1.1V11c0-0.4,0.1-0.8,0.4-1.1
		c0.3-0.3,0.7-0.4,1.1-0.4H458.8z M466.5,19.5c0-1.9-0.8-3.6-2.3-4.9c-1.5-1.4-3.4-2.1-5.5-2.1h-10.2v13.9h10.4
		c2.1,0,3.9-0.7,5.4-2.1C465.8,23,466.5,21.4,466.5,19.5z M496.6,46.7c-5.1,0-9.5-1.8-13.2-5.5c-3.7-3.6-5.5-8-5.5-13.2
		c0-5.2,1.8-9.6,5.5-13.2c3.6-3.7,8-5.5,13.2-5.5c4.2,0,8,1.3,11.4,3.9c0.3,0.3,0.5,0.6,0.6,1c0.1,0.4-0.1,0.8-0.3,1.1
		c-0.3,0.3-0.6,0.5-1,0.6c-0.4,0.1-0.8,0-1.1-0.3c-2.8-2.1-5.9-3.2-9.5-3.2c-4.3,0-7.9,1.5-11,4.5c-3,3-4.5,6.7-4.5,11
		c0,4.3,1.5,7.9,4.5,11c3,3,6.7,4.5,11,4.5c4,0,7.5-1.3,10.5-4c0.3-0.3,0.7-0.4,1.1-0.4c0.4,0,0.8,0.2,1.1,0.5
		c0.3,0.3,0.4,0.7,0.4,1.1c0,0.4-0.2,0.8-0.5,1.1C505.7,45.1,501.5,46.7,496.6,46.7z M521.6,46.7c-0.4,0-0.8-0.2-1.1-0.5
		c-0.3-0.3-0.5-0.7-0.5-1.1V10.9c0-0.4,0.2-0.8,0.5-1.1c0.3-0.3,0.7-0.5,1.1-0.5l20.6,0.1c0.4,0,0.8,0.2,1.1,0.5
		c0.3,0.3,0.5,0.7,0.5,1.1c0,0.4-0.2,0.8-0.5,1.1c-0.3,0.3-0.7,0.4-1.1,0.4l-19.1-0.1v14h14.3c0.4,0,0.8,0.2,1.1,0.5
		c0.3,0.3,0.5,0.7,0.5,1.1c0,0.4-0.2,0.8-0.5,1.1c-0.3,0.3-0.7,0.5-1.1,0.5h-14.3v14h19.1c0.4,0,0.8,0.2,1.1,0.5
		c0.3,0.3,0.5,0.7,0.5,1.1c0,0.4-0.2,0.8-0.5,1.1c-0.3,0.3-0.7,0.5-1.1,0.5H521.6z"/>
	<path class="st0" d="M165.7,67.6c1.3,0,2.3,0.4,3.2,1.3c0.9,0.8,1.3,1.8,1.3,3c0,1.2-0.4,2.2-1.3,3c-0.9,0.8-1.9,1.3-3.1,1.3h0h0h0
		c-0.1,0-0.1,0-0.1,0l-0.1,0h-3v4.9c0,0.3-0.1,0.6-0.3,0.8c-0.2,0.2-0.5,0.4-0.9,0.4c-0.3,0-0.6-0.1-0.8-0.4
		c-0.2-0.2-0.4-0.5-0.4-0.8V68.8c0-0.3,0.1-0.6,0.4-0.8c0.2-0.2,0.5-0.4,0.8-0.4H165.7z M165.8,73.8c0.6,0,1.1-0.2,1.5-0.6
		c0.4-0.4,0.6-0.8,0.6-1.3c0-0.5-0.2-1-0.6-1.3c-0.4-0.4-0.9-0.6-1.5-0.6h-3.1v3.7H165.8z M185.5,71.9c0,0.9-0.3,1.7-0.8,2.4
		c-0.5,0.7-1.2,1.2-2.1,1.5l2.3,4.7c0.1,0.3,0.2,0.6,0.1,0.9c-0.1,0.3-0.3,0.5-0.6,0.7c-0.2,0.1-0.3,0.1-0.5,0.1
		c-0.5,0-0.9-0.2-1.1-0.7l-2.7-5.5H178V81c0,0.3-0.1,0.6-0.4,0.8c-0.2,0.2-0.5,0.3-0.8,0.3c-0.3,0-0.6-0.1-0.8-0.3
		c-0.2-0.2-0.3-0.5-0.3-0.8V68.9c0-0.3,0.1-0.6,0.3-0.8c0.2-0.2,0.5-0.4,0.8-0.4h4.2c1.3,0,2.3,0.4,3.2,1.2
		C185.1,69.7,185.5,70.7,185.5,71.9z M181.1,73.8c0.6,0,1.1-0.2,1.5-0.6c0.4-0.4,0.6-0.8,0.6-1.3c0-0.5-0.2-1-0.6-1.3
		c-0.4-0.4-0.9-0.5-1.5-0.5h-3v3.7H181.1z M199.7,79.9c0.3,0,0.6,0.1,0.8,0.4c0.2,0.2,0.4,0.5,0.4,0.9s-0.1,0.6-0.4,0.8
		c-0.2,0.2-0.5,0.4-0.8,0.4h-7.4c-0.3,0-0.6-0.1-0.8-0.4c-0.2-0.2-0.4-0.5-0.4-0.8V68.9c0-0.3,0.1-0.6,0.4-0.9
		c0.2-0.2,0.5-0.4,0.8-0.4h0l7.4,0c0.3,0,0.6,0.1,0.9,0.4c0.2,0.2,0.3,0.5,0.3,0.9s-0.1,0.6-0.4,0.8c-0.2,0.2-0.5,0.4-0.8,0.4h0
		l-6.2,0v3.7h4.5c0.3,0,0.6,0.1,0.9,0.3c0.2,0.2,0.4,0.5,0.4,0.9s-0.1,0.6-0.4,0.9c-0.2,0.2-0.5,0.3-0.9,0.3h-4.5v3.7H199.7z
		 M215.4,78c-0.1,1.2-0.5,2.3-1.5,3.1c-0.9,0.8-2,1.3-3.3,1.3c-1.1,0-2.1-0.2-3-0.7c-1.1-0.6-1.7-1.4-2-2.5c-0.1-0.3,0-0.6,0.1-0.9
		c0.2-0.3,0.4-0.5,0.7-0.6c0.3-0.1,0.6,0,0.9,0.1c0.3,0.2,0.5,0.4,0.6,0.7c0.1,0.5,0.5,0.8,1,1.1c0.5,0.2,1,0.3,1.7,0.3
		c0.6,0,1.2-0.2,1.6-0.6c0.5-0.4,0.7-0.9,0.7-1.5c0-0.4-0.1-0.7-0.4-1c-0.4-0.4-1.1-0.7-2.1-0.7h0c0,0,0,0,0,0c0,0,0,0,0,0
		c-1.7,0-2.9-0.5-3.8-1.4c-0.7-0.8-1.1-1.7-1-2.7c0.1-1.2,0.5-2.3,1.5-3.1c0.9-0.8,2-1.3,3.3-1.3c1.1,0,2.1,0.2,3,0.7
		c1.1,0.6,1.7,1.4,2,2.5c0.1,0.3,0,0.6-0.1,0.9c-0.2,0.3-0.4,0.5-0.7,0.6c-0.3,0.1-0.6,0-0.9-0.1c-0.3-0.2-0.5-0.4-0.6-0.7
		c-0.1-0.5-0.5-0.8-1-1.1c-0.5-0.2-1-0.3-1.7-0.3c-0.6,0-1.2,0.2-1.7,0.6c-0.5,0.4-0.7,0.9-0.7,1.5c0,0.4,0.1,0.7,0.4,1
		c0.4,0.4,1.1,0.7,2.1,0.7h0.1c1.7,0,2.9,0.5,3.8,1.5C215.1,76,215.4,76.9,215.4,78z M229.9,79.9c0.3,0,0.6,0.1,0.8,0.4
		c0.2,0.2,0.4,0.5,0.4,0.9s-0.1,0.6-0.4,0.8c-0.2,0.2-0.5,0.4-0.8,0.4h-7.4c-0.3,0-0.6-0.1-0.8-0.4c-0.2-0.2-0.4-0.5-0.4-0.8V68.9
		c0-0.3,0.1-0.6,0.4-0.9c0.2-0.2,0.5-0.4,0.8-0.4h0l7.4,0c0.3,0,0.6,0.1,0.9,0.4c0.2,0.2,0.3,0.5,0.3,0.9s-0.1,0.6-0.4,0.8
		c-0.2,0.2-0.5,0.4-0.8,0.4h0l-6.2,0v3.7h4.5c0.3,0,0.6,0.1,0.9,0.3c0.2,0.2,0.4,0.5,0.4,0.9s-0.1,0.6-0.4,0.9
		c-0.2,0.2-0.5,0.3-0.9,0.3h-4.5v3.7H229.9z M246.2,81.9L246.2,81.9L246.2,81.9l-7.4-9.5v8.7c0,0.3-0.1,0.6-0.4,0.8
		c-0.2,0.2-0.5,0.4-0.8,0.4c-0.3,0-0.6-0.1-0.8-0.4c-0.2-0.2-0.4-0.5-0.4-0.8V68.9c0-0.3,0.1-0.5,0.2-0.7c0.1-0.2,0.3-0.4,0.6-0.4
		c0.2-0.1,0.5-0.1,0.7,0c0.2,0.1,0.4,0.2,0.6,0.4l7.4,9.5v-8.7c0-0.3,0.1-0.6,0.3-0.8c0.2-0.2,0.5-0.4,0.9-0.4
		c0.3,0,0.6,0.1,0.8,0.4c0.2,0.2,0.4,0.5,0.4,0.8v12.3c0,0,0,0,0,0.1c0,0,0,0,0,0.1c0,0,0,0,0,0.1c0,0,0,0,0,0.1l0,0.1
		c0,0,0,0.1,0,0.1c0,0,0,0,0,0.1c0,0,0,0,0,0.1l0,0.1l0,0.1c0,0,0,0,0,0.1l0,0c0,0,0,0,0,0.1l0,0c0,0,0,0,0,0c0,0,0,0,0,0
		c0,0,0,0,0,0c0,0,0,0-0.1,0c0,0,0,0,0,0l0,0c-0.1,0-0.1,0.1-0.2,0.1h0c-0.1,0-0.1,0.1-0.2,0.1c0,0,0,0,0,0c-0.1,0-0.1,0-0.2,0l0,0
		c-0.1,0-0.1,0-0.2,0c0,0-0.1,0-0.1,0c0,0,0,0,0,0c0,0-0.1,0-0.1,0c0,0,0,0,0,0c0,0-0.1,0-0.1,0c0,0,0,0,0,0c0,0-0.1,0-0.1,0
		c0,0,0,0,0,0c0,0-0.1,0-0.1,0c0,0,0,0,0,0c0,0,0,0-0.1-0.1c0,0,0,0,0,0c0,0-0.1-0.1-0.1-0.1L246.2,81.9L246.2,81.9
		C246.2,81.9,246.2,81.9,246.2,81.9C246.2,81.9,246.2,81.9,246.2,81.9z M257.7,70.1h-3c-0.3,0-0.6-0.1-0.9-0.4
		c-0.2-0.2-0.3-0.5-0.3-0.8s0.1-0.6,0.3-0.8c0.2-0.2,0.5-0.4,0.9-0.4h8.5c0.3,0,0.6,0.1,0.8,0.4c0.2,0.2,0.3,0.5,0.3,0.8
		s-0.1,0.6-0.3,0.8c-0.2,0.2-0.5,0.4-0.8,0.4h-3v11.1c0,0.3-0.1,0.6-0.4,0.9c-0.2,0.2-0.5,0.3-0.8,0.3c-0.3,0-0.6-0.1-0.8-0.3
		c-0.2-0.2-0.4-0.5-0.4-0.9V70.1z M277.7,79.9c0.3,0,0.6,0.1,0.8,0.4c0.2,0.2,0.4,0.5,0.4,0.9s-0.1,0.6-0.4,0.8
		c-0.2,0.2-0.5,0.4-0.8,0.4h-7.4c-0.3,0-0.6-0.1-0.8-0.4c-0.2-0.2-0.4-0.5-0.4-0.8V68.9c0-0.3,0.1-0.6,0.4-0.9
		c0.2-0.2,0.5-0.4,0.8-0.4h0l7.4,0c0.3,0,0.6,0.1,0.9,0.4c0.2,0.2,0.3,0.5,0.3,0.9s-0.1,0.6-0.4,0.8c-0.2,0.2-0.5,0.4-0.8,0.4h0
		l-6.2,0v3.7h4.5c0.3,0,0.6,0.1,0.9,0.3c0.2,0.2,0.4,0.5,0.4,0.9s-0.1,0.6-0.4,0.9c-0.2,0.2-0.5,0.3-0.9,0.3h-4.5v3.7H277.7z
		 M285.4,82.3c-0.3,0-0.6-0.1-0.8-0.3c-0.2-0.2-0.4-0.5-0.4-0.9V68.9c0-0.3,0.1-0.6,0.4-0.9c0.2-0.2,0.5-0.3,0.8-0.3h3.1
		c2,0,3.7,0.7,5.2,2.1c1.4,1.4,2.1,3.2,2.1,5.2c0,2-0.7,3.7-2.1,5.2c-1.4,1.4-3.2,2.1-5.2,2.1L285.4,82.3L285.4,82.3z M286.6,79.9
		l1.9,0c1.4,0,2.5-0.5,3.5-1.4c1-1,1.4-2.1,1.4-3.5c0-1.3-0.5-2.5-1.4-3.4c-1-1-2.1-1.4-3.5-1.4h-1.9V79.9z M310,82.3
		c-0.3,0-0.6-0.1-0.8-0.4c-0.2-0.2-0.4-0.5-0.4-0.8V68.9c0-0.3,0.1-0.6,0.3-0.8c0.2-0.2,0.5-0.4,0.8-0.4l4.3,0
		c1.3,0,2.4,0.4,3.3,1.2c0.9,0.8,1.3,1.8,1.3,3c0,1.1-0.4,2.1-1.3,3c1,0.8,1.5,1.9,1.5,3.2c0,1.2-0.4,2.2-1.3,3
		c-0.9,0.8-2,1.3-3.2,1.3H310z M311.2,73.8h3.1c0.6,0,1.1-0.2,1.5-0.6c0.4-0.4,0.6-0.8,0.6-1.3c0-0.5-0.2-0.9-0.6-1.3
		c-0.4-0.4-0.9-0.5-1.5-0.5l-3.1,0V73.8z M311.2,79.9h3.3c0.6,0,1.1-0.2,1.5-0.6c0.4-0.4,0.6-0.8,0.6-1.3c0-0.5-0.2-0.9-0.6-1.3
		c-0.4-0.4-0.9-0.5-1.5-0.5c0,0-0.1,0-0.1,0c-0.1,0-0.1,0-0.2,0h-3.1V79.9z M335.2,68c0.3,0.2,0.4,0.5,0.4,0.8
		c0,0.3-0.1,0.6-0.3,0.9l-4.4,5.5v5.9c0,0.3-0.1,0.6-0.4,0.9c-0.2,0.2-0.5,0.3-0.8,0.3c-0.3,0-0.6-0.1-0.8-0.3
		c-0.2-0.2-0.4-0.5-0.4-0.9v-5.9l-4.4-5.5c-0.2-0.3-0.3-0.6-0.3-0.9c0-0.3,0.2-0.6,0.4-0.8c0.3-0.2,0.6-0.3,0.9-0.3
		c0.3,0,0.6,0.2,0.8,0.4l3.8,4.7l3.8-4.7c0.2-0.3,0.5-0.4,0.8-0.4C334.6,67.7,334.9,67.8,335.2,68z"/>
	<path class="st0" d="M350,67.4c0.3,0.4,0.4,0.7,0.5,1.5c1-1,2.2-1.5,3.6-1.5c1.2,0,2.2,0.4,3,1.2c0.2,0.2,0.4,0.5,0.6,0.7
		c1.3-1.4,2.5-1.9,4.2-1.9c1.1,0,2.2,0.3,2.9,0.9c0.8,0.7,1.1,1.6,1.1,3.6v10.4h-3.7v-9.7c0-1.8-0.2-2.1-1.2-2.1
		c-0.7,0-1.7,0.5-2.6,1.2v10.6h-3.6v-9.6c0-1.8-0.3-2.3-1.3-2.3c-0.7,0-1.7,0.4-2.5,1.1v10.7h-3.8V72.1c0-2.1-0.1-3-0.5-3.8
		L350,67.4z M379.6,69.6c1.2,1.4,1.7,3,1.7,5.4c0,2.5-0.6,4.2-1.8,5.7c-1.1,1.3-2.6,2-4.8,2c-4,0-6.6-3-6.6-7.6
		c0-4.6,2.6-7.7,6.6-7.7C376.7,67.4,378.3,68.1,379.6,69.6z M372.6,71.7c-0.3,0.8-0.4,1.8-0.4,3.3c0,1.7,0.2,3,0.5,3.7
		c0.3,0.8,1.2,1.2,1.9,1.2c1.7,0,2.4-1.5,2.4-5c0-2-0.3-3.3-0.8-3.9c-0.4-0.5-1-0.8-1.7-0.8C373.7,70.2,373,70.8,372.6,71.7z
		 M393.6,67.7v2.6l-6.5,9.4h6.7l-0.9,2.7h-10.8V80l6.9-9.6h-6.3v-2.7H393.6z M400.1,63.6c0,1.3-1.1,2.4-2.4,2.4
		c-1.3,0-2.3-1.1-2.3-2.4c0-1.3,1.1-2.4,2.4-2.4C399.1,61.2,400.1,62.3,400.1,63.6z M399.7,67.3v15h-3.8V67.9L399.7,67.3z
		 M406.7,64.9v11.4c0,2.5,0,2.9,0.3,3.3c0.1,0.3,0.5,0.4,0.8,0.4c0.1,0,0.2,0,0.4-0.1l0.7,2.3c-0.7,0.3-1.5,0.4-2.3,0.4
		c-1.6,0-3-0.8-3.4-2c-0.3-0.7-0.4-1.2-0.4-3.3v-11c0-1.9,0-3.1-0.2-4.4l3.9-0.9C406.6,61.9,406.7,62.9,406.7,64.9z M414.6,64.9
		v11.4c0,2.5,0,2.9,0.3,3.3c0.1,0.3,0.4,0.4,0.8,0.4c0.1,0,0.2,0,0.4-0.1l0.7,2.3c-0.7,0.3-1.5,0.4-2.3,0.4c-1.6,0-3-0.8-3.4-2
		c-0.3-0.7-0.3-1.2-0.3-3.3v-11c0-1.9-0.1-3.1-0.2-4.4l3.9-0.9C414.6,61.9,414.6,62.9,414.6,64.9z M420.7,68.2
		c1.4-0.6,2.7-0.9,4-0.9c2.5,0,4.2,0.9,4.7,2.6c0.2,0.6,0.3,1.1,0.3,2.6l-0.1,4.9c0,0.1,0,0.2,0,0.3c0,1.6,0.3,2.2,1.4,3l-2,2.4
		c-0.9-0.4-1.7-1-2.1-1.8c-0.3,0.3-0.6,0.6-0.9,0.8c-0.7,0.5-1.8,0.8-3,0.8c-3.3,0-5-1.7-5-4.6c0-3.4,2.4-5.1,7.1-5.1
		c0.3,0,0.5,0,0.9,0v-0.6c0-1.6-0.3-2.2-1.7-2.2c-1.2,0-2.7,0.6-4.2,1.7l-1.6-2.8C419.1,68.9,419.6,68.6,420.7,68.2z M425.6,75.9
		c-2.7,0-3.6,0.5-3.6,2.2c0,1.1,0.7,1.9,1.7,1.9c0.7,0,1.4-0.4,2-1l0.1-3.2H425.6z"/>
</g>
</svg>
