<?xml version="1.0" encoding="utf-8"?>
<!-- Generator: Adobe Illustrator 19.1.0, SVG Export Plug-In . SVG Version: 6.00 Build 0)  -->
<svg version="1.1" id="Layer_1" xmlns="http://www.w3.org/2000/svg" xmlns:xlink="http://www.w3.org/1999/xlink" x="0px" y="0px"
	 viewBox="-973 1952 615 560" style="enable-background:new -973 1952 615 560;" xml:space="preserve">
<style type="text/css">
	.st0{fill:#00AA86;}
	.st1{fill:none;stroke:#00AA86;stroke-width:6;stroke-linejoin:round;stroke-miterlimit:10;}
</style>
<g>
	<path class="st0" d="M-646.9,2332.9c-50.2,0-90.9-40.7-90.9-90.9s40.7-90.9,90.9-90.9s90.9,40.7,90.9,90.9
		S-596.7,2332.9-646.9,2332.9z M-646.9,2160.1c-45.1,0-81.8,36.7-81.8,81.8s36.7,81.8,81.8,81.8s81.8-36.7,81.8-81.8
		S-601.8,2160.1-646.9,2160.1z M-503.6,2402.3l103.6-157.8c1.1-1.5,1.1-3.6,0-5.1l-103.6-157.8c-1.5-2.2-4.4-2.5-6.2-1.5
		c-2.2,1.5-2.5,4.4-1.5,6.2l101.8,155.7l-101.8,155.7c-1.5,2.2-0.7,5.1,1.5,6.2c0.7,0.4,1.5,0.7,2.5,0.7
		C-506.1,2404.5-504.7,2403.8-503.6,2402.3z M-784,2403.8c2.2-1.5,2.5-4.4,1.5-6.2L-884.7,2242l101.8-155.7c1.5-2.2,0.7-5.1-1.5-6.2
		c-2.2-1.5-5.1-0.7-6.2,1.5l-103.3,157.8c-1.1,1.5-1.1,3.6,0,5.1l103.6,157.8c0.7,1.5,2.2,2.2,3.6,2.2
		C-785.4,2404.5-784.7,2404.2-784,2403.8z"/>
	<rect x="-915" y="1986" class="st1" width="536.3" height="512"/>
</g>
</svg>
